# xmcd
#
# Track frame offsets: 
#        150
#        18920
#        37500
#        52475
#        67655
#        87145
#        105618
#        122295
#        139505
#        156893
#
# Disc length: 2307 seconds
#
# Revision: 2
# Processed by: cddbd v1.5.2PL0 Copyright (c) Steve Scherf et al.
# Submitted via: ExactAudioCopyFreeDBPlugin 1.0
#
DISCID=6e09010a
DTITLE=Alabama - Alabama Christmas
DYEAR=1985
DGENRE=Country
TTITLE0=Santa Claus (I Still Believe In You)
TTITLE1=Joseph And Mary's Boy
TTITLE2=Happy Holidays
TTITLE3=Christmas Memories
TTITLE4=Tonight Is Christmas
TTITLE5=Thistlehair The Christmas Bear
TTITLE6=Tennesse Christmas
TTITLE7=A Candle In The Window
TTITLE8=Homecoming Christmas
TTITLE9=Christmas In Dixie
EXTD=
EXTT0=
EXTT1=
EXTT2=
EXTT3=
EXTT4=
EXTT5=
EXTT6=
EXTT7=
EXTT8=
EXTT9=
PLAYORDER=
